<?xml version="1.0" encoding="utf-8"?>
<!-- Generator: Adobe Illustrator 19.2.1, SVG Export Plug-In . SVG Version: 6.00 Build 0)  -->
<svg version="1.1" id="Layer_1" xmlns="http://www.w3.org/2000/svg" xmlns:xlink="http://www.w3.org/1999/xlink" x="0px" y="0px"
	 viewBox="0 0 529 86" style="enable-background:new 0 0 529 86;" xml:space="preserve">
<style type="text/css">
	.st0{fill:#FFFFFF;}
	.st1{fill:#ED3F24;}
</style>
<g>
	<path class="st0" d="M17,49l-5.8,16.3c-0.1,0.3-0.2,0.5-0.6,0.5H5.1c-0.4,0-0.6-0.2-0.5-0.6l17.6-49c0.2-0.6,0.5-1.2,0.6-3.3
		c0-0.2,0.2-0.4,0.4-0.4h7.9c0.3,0,0.4,0.1,0.5,0.4l19,52.4c0.2,0.3,0.1,0.6-0.3,0.6H44c-0.3,0-0.5-0.2-0.6-0.4L37.5,49H17z
		 M35.7,42.8c-1.8-5.2-6.9-19.4-8.4-24.9h-0.1c-1.4,5.2-5.2,16-8.3,24.9H35.7z"/>
	<path class="st0" d="M54.3,46.5c0-11.9,8.8-20.7,21.9-20.7c2.3,0,3.6,0.2,5.1,0.5V8.4C81.3,8,81.5,8,81.8,8h5.8
		c0.4,0,0.5,0.2,0.5,0.4v50.8c0,1.1,0,2.5,0.2,3.9c0,0.3-0.1,0.4-0.4,0.6c-4.6,2.2-9.1,3-13.6,3C63,66.6,54.3,59.8,54.3,46.5z
		 M81.3,32.4c-1.3-0.6-3.2-0.8-5.2-0.8c-9.2,0-14.9,6.2-14.9,14.6c0,10.5,6.6,14.5,13.7,14.5c2.1,0,4.6-0.2,6.5-1V32.4z"/>
	<path class="st0" d="M133.5,46.1c0,12.3-7.6,20.5-18.4,20.5c-13,0-18.6-10.5-18.6-20.4c0-11.4,7.3-20.4,18.6-20.4
		C126.5,25.8,133.5,34.5,133.5,46.1z M103.3,46c0,8.2,4.3,14.8,11.9,14.8c5.7,0,11.4-4.5,11.4-14.5c0-7.5-3.5-14.7-11.9-14.7
		C108,31.6,103.3,37.4,103.3,46z"/>
	<path class="st0" d="M148.1,8c0.4,0,0.6,0,0.6,0.5v19c2.6-1,5.5-1.6,8.7-1.6c11.1,0,18.4,8,18.4,18.9c0,14.5-11,21.9-22.3,21.9
		c-4,0-7.6-0.5-11.1-1.6c-0.3-0.1-0.5-0.4-0.5-0.7V8.4c0-0.4,0.2-0.5,0.6-0.5H148.1z M156.4,31.7c-3.5,0-5.6,0.6-7.7,1.4v27.1
		c1.5,0.5,3.1,0.6,5.3,0.6c7.7,0,14.9-5.2,14.9-15.6C168.9,37,164.1,31.7,156.4,31.7z"/>
	<path class="st0" d="M188.9,47c-0.1,7.7,4.4,13.7,13.5,13.7c3.5,0,6.9-0.6,10.1-2.2c0.2-0.2,0.4,0,0.4,0.3v4.6
		c0,0.5-0.2,0.6-0.4,0.8c-2.7,1.4-6.3,2.3-11.4,2.3c-14,0-19-10.2-19-20.1c0-11.3,6.6-20.7,17.8-20.7c11.5,0,15.7,9.4,15.7,16.2
		c0,2-0.2,3.5-0.3,4.2c0,0.2-0.2,0.5-0.6,0.5c-1.2,0.2-4.8,0.3-8.3,0.3H188.9z M204,42c4,0,4.9-0.1,5.2-0.2c0.1-0.2,0.1-0.6,0.1-0.9
		c0-2.9-1.9-9.6-9.5-9.6c-6.7,0-10,5.2-10.7,10.7H204z"/>
	<path class="st0" d="M324.4,49l-5.8,16.3c-0.1,0.3-0.2,0.5-0.6,0.5h-5.5c-0.4,0-0.6-0.2-0.5-0.6l17.6-49c0.2-0.6,0.5-1.2,0.6-3.3
		c0-0.2,0.2-0.4,0.4-0.4h7.9c0.3,0,0.4,0.1,0.5,0.4l19,52.4c0.2,0.3,0.1,0.6-0.3,0.6h-6.1c-0.3,0-0.5-0.2-0.6-0.4L344.9,49H324.4z
		 M343.1,42.8c-1.8-5.2-6.9-19.4-8.4-24.9h-0.1c-1.4,5.2-5.2,16-8.3,24.9H343.1z"/>
	<path class="st0" d="M361.7,46.5c0-11.9,8.8-20.7,21.9-20.7c2.3,0,3.6,0.2,5.1,0.5V8.4c0-0.4,0.2-0.5,0.5-0.5h5.8
		c0.4,0,0.5,0.2,0.5,0.4v50.8c0,1.1,0,2.5,0.2,3.9c0,0.3-0.1,0.4-0.4,0.6c-4.6,2.2-9.1,3-13.6,3C370.4,66.6,361.7,59.8,361.7,46.5z
		 M388.7,32.4c-1.3-0.6-3.2-0.8-5.2-0.8c-9.2,0-14.9,6.2-14.9,14.6c0,10.5,6.6,14.5,13.7,14.5c2.1,0,4.6-0.2,6.5-1V32.4z"/>
	<path class="st0" d="M440.9,46.1c0,12.3-7.6,20.5-18.4,20.5c-13,0-18.6-10.5-18.6-20.4c0-11.4,7.3-20.4,18.6-20.4
		C433.9,25.8,440.9,34.5,440.9,46.1z M410.7,46c0,8.2,4.3,14.8,11.9,14.8c5.7,0,11.4-4.5,11.4-14.5c0-7.5-3.5-14.7-11.9-14.7
		C415.4,31.6,410.7,37.4,410.7,46z"/>
	<path class="st0" d="M455.5,8c0.4,0,0.6,0,0.6,0.5v19c2.6-1,5.5-1.6,8.7-1.6c11.1,0,18.4,8,18.4,18.9c0,14.5-11,21.9-22.3,21.9
		c-4,0-7.6-0.5-11.1-1.6c-0.3-0.1-0.5-0.4-0.5-0.7V8.4c0-0.4,0.2-0.5,0.6-0.5H455.5z M463.8,31.7c-3.5,0-5.6,0.6-7.7,1.4v27.1
		c1.5,0.5,3.1,0.6,5.3,0.6c7.7,0,14.9-5.2,14.9-15.6C476.3,37,471.5,31.7,463.8,31.7z"/>
	<path class="st0" d="M496.3,47c-0.1,7.7,4.4,13.7,13.5,13.7c3.5,0,6.9-0.6,10.1-2.2c0.2-0.2,0.4,0,0.4,0.3v4.6
		c0,0.5-0.2,0.6-0.4,0.8c-2.7,1.4-6.3,2.3-11.4,2.3c-14,0-19-10.2-19-20.1c0-11.3,6.6-20.7,17.8-20.7c11.5,0,15.7,9.4,15.7,16.2
		c0,2-0.2,3.5-0.3,4.2c0,0.2-0.2,0.5-0.6,0.5c-1.2,0.2-4.8,0.3-8.3,0.3H496.3z M511.4,42c4,0,4.9-0.1,5.2-0.2
		c0.1-0.2,0.1-0.6,0.1-0.9c0-2.9-1.9-9.6-9.5-9.6c-6.7,0-10,5.2-10.7,10.7H511.4z"/>
</g>
<path class="st1" d="M252.4,62.1c-4.8,0-7.8-5.2-5.4-9.3l15.4-26.7l1.5-2.6c2.4-4.2,8.4-4.2,10.8,0l1.2,2.1l11.9,20.7
	c1.3,2.2-0.3,4.9-2.8,4.9h-21.8c-1.1,0-1.8-1.2-1.3-2.2l6.1-10.5c0.6-1,2-1,2.5,0l3.2,5.5c0.2,0.4,0.7,0.7,1.2,0.7h3.2
	c0.8,0,1.4-0.9,0.9-1.6l-5.9-10.3l-1.7-3c-1-1.7-3.4-1.7-4.3,0l-1.8,3.1l-10.7,18.5c-1.3,2.2,0.3,4.9,2.8,4.9h3.7l0.3,0
	c5,0,17.9-0.2,22.9-0.2c2.5,0,11.9-1.1,11.9-12.5c0-16.9-11.9-29.2-28.6-29.2c-16.7,0-30.3,13.7-30.3,30.7c0,11.2,6.1,21,16.9,24.7
	c5,1.7,10.3,2,15.5,1.9c2.6,0,5.2-0.2,7.8-0.3c2.3-0.1,4.6-0.7,5.9,1.2l2,3.5c0.7,1.1-0.1,2.5-1.4,2.6c-4.4,0.4-8.7,0.6-13.1,0.7
	c-3.5,0-7,0.1-10.4-0.3c-5.6-0.7-11-2.4-15.8-5.5c-4.5-2.9-8.2-6.8-10.7-11.5c-2.7-5.1-4-10.8-4-16.6c0-0.1,0-0.3,0-0.4
	c0-21,16.8-38.1,37.6-38.1c22.8,0,35.9,15.8,35.9,36.8c-0.6,11.5-8.2,18.3-20.1,18.3h-0.2c-8,0-21,0-28.9,0h-0.2L252.4,62.1z"/>
</svg>
